<?xml version="1.0" standalone="no"?>
<!DOCTYPE svg PUBLIC "-//W3C//DTD SVG 20010904//EN"
 "http://www.w3.org/TR/2001/REC-SVG-20010904/DTD/svg10.dtd">
<svg version="1.0" xmlns="http://www.w3.org/2000/svg"
 width="700.000000pt" height="700.000000pt" viewBox="0 0 700.000000 700.000000"
 preserveAspectRatio="xMidYMid meet">

<g transform="translate(0.000000,700.000000) scale(0.100000,-0.100000)"
fill="white" stroke="current">
<path d="M3563 6893 c-31 -6 -69 -48 -77 -84 -3 -18 -6 -78 -6 -136 0 -86 -3
-105 -16 -110 -9 -3 -75 13 -148 37 -72 23 -158 44 -191 47 -55 5 -64 3 -93
-22 l-32 -27 0 -122 c0 -88 -4 -127 -14 -141 -15 -21 -3 -23 -221 44 -431 133
-437 134 -492 87 -27 -24 -28 -27 -33 -157 -4 -102 -8 -134 -20 -141 -10 -7
-79 11 -225 57 -115 37 -237 69 -271 72 -57 5 -63 4 -95 -25 l-34 -30 -8 -399
c-4 -219 -9 -558 -12 -754 l-6 -357 -47 14 c-26 8 -64 19 -84 25 l-38 10 0
194 c0 150 -3 195 -13 195 -7 0 -77 -20 -157 -45 -80 -25 -170 -52 -200 -61
-131 -36 -199 -82 -245 -166 l-30 -53 -3 -1109 c-3 -1234 -6 -1160 66 -1266
69 -102 100 -116 652 -299 272 -90 716 -236 985 -326 879 -292 908 -300 1040
-292 113 8 171 25 675 196 879 299 1120 381 1350 461 146 50 303 105 350 121
149 51 223 115 272 236 l23 58 0 1110 0 1110 -27 51 c-31 60 -94 119 -151 143
-23 10 -98 35 -167 55 -69 21 -132 44 -141 52 -14 13 -16 63 -11 498 5 521 3
552 -45 614 -14 18 -44 42 -66 52 -42 19 -241 80 -412 126 -49 13 -121 35
-160 48 -83 29 -224 72 -510 156 -304 89 -485 144 -595 180 -177 59 -272 80
-317 73z m399 -317 c117 -36 227 -70 243 -76 17 -6 194 -59 395 -116 363 -104
769 -228 802 -246 48 -25 48 -23 46 -724 l-3 -657 -25 -8 c-100 -30 -247 -72
-255 -73 -7 -1 -12 221 -15 639 -5 631 -5 641 -27 680 -43 82 -67 94 -318 167
-93 27 -240 71 -325 98 -85 27 -279 85 -431 129 -152 44 -288 85 -303 91 -25
9 -26 13 -26 85 0 58 3 75 14 75 8 0 111 -29 228 -64z m-520 -232 c311 -89
419 -122 483 -144 33 -12 148 -46 255 -76 554 -156 651 -189 694 -232 20 -19
38 -49 41 -66 3 -17 5 -309 3 -649 -2 -339 0 -617 4 -617 17 0 81 -66 101
-104 21 -40 22 -50 22 -396 l0 -355 -26 -55 c-40 -84 -90 -135 -173 -175 -60
-30 -85 -37 -142 -38 -111 -3 -177 44 -204 142 -5 20 -9 169 -9 332 1 284 0
298 -21 347 -19 44 -85 120 -116 133 -5 2 -7 261 -4 659 l5 655 30 -3 c44 -5
96 -33 119 -65 21 -28 21 -41 24 -599 l2 -570 37 7 c19 3 67 18 105 32 l68 25
-2 597 -3 597 -27 42 c-16 23 -43 49 -60 58 -18 10 -123 43 -233 75 -110 31
-308 89 -440 129 -132 39 -316 94 -410 121 -93 28 -207 61 -252 75 l-83 25 0
75 c0 41 4 74 10 74 5 0 96 -25 202 -56z m-845 -129 c54 -19 220 -68 368 -110
149 -42 369 -107 490 -144 121 -38 296 -90 389 -116 178 -51 217 -70 253 -124
l23 -34 -2 -670 -3 -669 -75 -24 c-41 -13 -81 -22 -87 -19 -10 3 -13 148 -15
639 l-3 634 -30 43 c-17 25 -49 53 -75 66 -25 13 -162 56 -305 97 -417 120
-533 154 -660 196 -66 21 -176 55 -244 74 -68 20 -129 41 -137 47 -14 12 -20
129 -7 142 10 11 15 9 120 -28z m-628 -196 c75 -22 206 -63 291 -90 85 -27
198 -60 250 -75 412 -114 667 -192 721 -220 39 -20 87 -79 98 -121 13 -47 15
-1299 2 -1307 -10 -6 -170 39 -466 132 -104 33 -307 94 -450 137 -143 42 -338
101 -432 132 l-173 54 0 700 c0 505 3 699 11 699 6 0 73 -18 148 -41z m1706
-508 c32 -21 41 -35 47 -66 11 -61 9 -1188 -2 -1205 -9 -15 -139 -52 -152 -43
-9 5 -11 1337 -2 1346 12 11 69 -6 109 -32z m-2515 -937 c139 -43 261 -80 565
-168 127 -37 284 -84 350 -105 149 -49 345 -108 535 -162 347 -99 663 -199
672 -213 4 -6 8 -156 8 -333 l0 -323 43 0 c54 0 87 -22 87 -59 0 -39 -23 -55
-81 -54 l-49 1 0 -129 0 -129 41 0 c32 0 47 -6 71 -30 28 -28 29 -32 15 -53
-11 -18 -25 -23 -71 -25 l-56 -3 0 -124 0 -125 43 0 c55 0 87 -22 87 -60 0
-22 -6 -30 -30 -38 -16 -6 -45 -8 -65 -5 l-35 6 0 -121 0 -120 48 -7 c56 -8
82 -29 82 -65 0 -32 -32 -50 -90 -50 l-39 0 -3 -112 c-2 -68 -7 -112 -13 -111
-5 1 -93 28 -195 61 -102 33 -275 90 -385 125 -110 36 -297 97 -415 137 -264
87 -1057 346 -1125 367 -78 24 -115 51 -136 99 -19 41 -19 82 -19 999 0 527 3
961 6 967 3 5 13 7 22 4 10 -3 69 -22 132 -42z m4758 -899 c1 -517 0 -955 -3
-973 -4 -20 -23 -52 -47 -78 -37 -40 -52 -48 -157 -80 -64 -19 -201 -65 -306
-101 -104 -36 -365 -125 -580 -198 -214 -73 -469 -159 -565 -193 -291 -100
-590 -193 -600 -187 -6 3 -10 53 -10 111 l0 104 -46 0 c-64 0 -84 13 -84 55 0
42 20 55 84 55 l46 0 0 124 0 123 -52 -1 c-65 0 -78 7 -78 44 0 42 24 60 81
60 l49 0 0 125 0 125 -55 0 c-47 0 -57 3 -70 24 -30 45 11 86 84 86 l41 0 0
130 0 130 -52 0 c-34 0 -58 6 -70 17 -23 21 -23 34 3 67 17 22 28 26 70 26
l49 0 2 332 3 332 155 48 c310 97 350 108 384 108 22 0 36 -6 40 -16 3 -9 6
-137 6 -286 0 -294 7 -347 58 -442 68 -125 246 -210 402 -191 271 34 509 232
588 490 13 40 17 127 21 420 l6 370 100 32 c55 17 183 59 285 92 102 33 192
59 200 58 13 -2 15 -116 18 -942z"/>
<path d="M2463 5695 c-253 -55 -394 -248 -381 -522 6 -121 28 -182 109 -303
63 -94 227 -258 325 -326 53 -37 55 -37 87 -22 79 38 268 222 344 336 70 105
104 201 110 312 15 263 -145 471 -402 525 -84 18 -111 18 -192 0z m228 -261
c65 -35 113 -97 135 -171 32 -110 -7 -222 -100 -291 -50 -37 -51 -37 -147 -37
-97 0 -97 0 -155 40 -83 57 -119 129 -118 234 0 57 5 86 21 116 70 133 230
181 364 109z"/>
<path d="M1098 4450 c-15 -9 -18 -26 -18 -100 0 -86 1 -89 31 -114 33 -28 50
-32 80 -16 17 9 19 22 19 104 0 77 -3 96 -18 109 -24 22 -72 30 -94 17z"/>
<path d="M1323 4379 c-14 -14 -18 -176 -5 -195 20 -31 88 -44 110 -22 7 7 12
45 12 98 0 72 -3 90 -19 104 -25 22 -82 31 -98 15z"/>
<path d="M1607 4293 c-13 -12 -8 -178 6 -196 14 -20 76 -32 96 -18 11 7 14 31
13 98 -2 76 -5 90 -23 106 -21 17 -79 24 -92 10z"/>
<path d="M1887 4213 c-4 -3 -7 -46 -7 -94 0 -83 2 -90 24 -104 14 -9 39 -15
58 -13 l33 3 3 92 3 92 -30 16 c-31 16 -73 20 -84 8z"/>
<path d="M2193 4123 c-9 -3 -13 -31 -13 -88 0 -73 3 -87 23 -111 24 -28 69
-36 89 -16 6 6 13 47 16 91 4 75 3 81 -21 105 -25 25 -62 32 -94 19z"/>
<path d="M2478 4039 c-15 -8 -18 -25 -18 -94 0 -101 15 -125 79 -125 45 0 51
11 51 100 0 80 -8 99 -47 115 -41 17 -43 18 -65 4z"/>
<path d="M2787 3943 c-4 -3 -7 -44 -7 -90 0 -100 15 -123 80 -123 22 0 40 3
41 8 0 4 2 35 6 70 7 81 -1 108 -37 127 -30 16 -72 20 -83 8z"/>
<path d="M1786 3880 c-32 -39 -42 -92 -27 -150 17 -65 54 -94 158 -125 48 -14
158 -48 243 -76 85 -27 170 -49 187 -49 21 0 44 10 64 28 27 24 33 37 37 84 5
67 -16 117 -64 155 -41 31 -469 163 -531 163 -34 0 -46 -5 -67 -30z"/>
<path d="M3092 3858 c-7 -7 -12 -44 -12 -95 0 -76 2 -86 25 -108 30 -31 80
-34 95 -6 5 11 10 54 10 95 0 73 -1 76 -33 100 -37 28 -66 33 -85 14z"/>
<path d="M2018 3005 c-70 -70 -19 -215 76 -215 100 0 141 155 59 219 -38 31
-103 28 -135 -4z"/>
<path d="M5697 4433 c-19 -23 -30 -115 -20 -173 7 -39 12 -45 35 -48 16 -2 39
6 58 19 29 22 30 25 30 105 0 45 -3 89 -6 98 -9 22 -76 21 -97 -1z"/>
<path d="M5475 4356 c-12 -18 -15 -46 -13 -117 l3 -94 43 1 c64 1 75 18 80
119 5 100 -3 115 -59 115 -30 0 -42 -6 -54 -24z"/>
<path d="M4007 3922 c-22 -24 -25 -193 -3 -211 21 -17 87 8 103 39 15 30 17
144 3 171 -14 26 -80 26 -103 1z"/>
<path d="M3755 3845 c-23 -22 -25 -32 -25 -109 0 -116 23 -137 98 -90 15 10
22 25 23 47 7 167 5 177 -42 177 -18 0 -39 -9 -54 -25z"/>
<path d="M1281 1339 c-26 -26 -31 -38 -31 -79 0 -42 4 -51 35 -79 52 -45 101
-43 155 5 32 29 40 43 40 71 0 73 -41 112 -117 113 -44 0 -56 -4 -82 -31z"/>
<path d="M640 1300 c-22 -14 -21 -907 1 -921 20 -12 485 -12 510 1 16 9 19 22
19 89 0 53 -4 82 -13 89 -8 7 -73 13 -163 14 l-149 3 -5 355 c-3 195 -9 361
-13 368 -10 15 -164 17 -187 2z"/>
<path d="M2302 1298 c-15 -15 -17 -884 -3 -907 11 -17 123 -28 166 -17 25 6
25 8 25 105 0 165 15 171 97 34 84 -143 84 -143 190 -143 109 0 123 7 96 46
-59 85 -213 345 -213 361 0 10 4 24 8 31 16 25 88 108 125 145 21 20 35 42 32
47 -3 6 -42 10 -85 10 l-79 0 -75 -77 c-41 -43 -78 -74 -83 -69 -4 4 -8 105
-8 224 l0 217 -90 3 c-62 2 -94 -1 -103 -10z"/>
<path d="M3131 1024 c-94 -33 -155 -87 -195 -174 -22 -46 -26 -70 -26 -146 0
-110 17 -157 86 -233 60 -67 113 -97 197 -111 57 -10 78 -10 134 4 84 22 134
47 167 87 31 36 32 33 -49 91 l-50 36 -40 -24 c-72 -43 -188 -27 -235 33 -11
14 -18 29 -15 33 2 4 103 10 224 14 121 3 228 9 237 13 14 5 16 18 12 79 -12
182 -154 315 -336 314 -37 -1 -87 -8 -111 -16z m204 -184 c58 -56 52 -60 -98
-60 -74 0 -137 3 -140 6 -11 11 34 66 67 80 18 9 52 13 84 11 44 -3 59 -9 87
-37z"/>
<path d="M5370 1018 c-81 -31 -159 -113 -193 -203 -30 -79 -34 -140 -12 -203
52 -148 154 -234 305 -257 75 -11 179 19 250 71 33 24 60 46 60 49 0 2 -30 27
-66 54 l-66 50 -43 -24 c-73 -43 -177 -29 -223 30 -12 15 -22 31 -22 35 0 4
102 10 226 14 125 3 231 9 236 13 6 3 9 37 6 83 -4 65 -10 87 -40 141 -64 114
-160 169 -291 168 -48 0 -90 -7 -127 -21z m215 -178 c58 -56 51 -60 -94 -60
-72 0 -132 4 -135 8 -3 5 2 19 11 31 49 71 156 81 218 21z"/>
<path d="M1917 1015 c-27 -7 -66 -26 -88 -41 -34 -23 -42 -25 -50 -13 -5 8 -9
20 -9 26 0 18 -35 24 -120 21 l-75 -3 -3 -304 c-2 -216 1 -308 9 -317 14 -17
124 -19 163 -4 l26 10 0 174 c0 96 4 185 9 198 12 32 59 77 89 85 36 9 86 -20
105 -60 14 -28 17 -68 17 -209 0 -95 4 -180 9 -187 11 -17 123 -28 166 -17
l25 6 0 238 c0 230 -1 239 -24 289 -27 56 -73 93 -142 112 -46 13 -46 13 -107
-4z"/>
<path d="M3873 1016 c-96 -31 -177 -108 -212 -200 -79 -212 67 -448 292 -471
101 -10 242 40 281 100 9 13 16 26 16 29 0 3 -27 26 -60 51 l-60 46 -37 -26
c-30 -20 -50 -25 -96 -25 -32 0 -68 5 -80 11 -31 16 -77 60 -77 74 0 8 66 14
227 19 140 4 232 11 240 17 28 24 6 153 -41 233 -31 52 -71 88 -140 123 -62
32 -185 41 -253 19z m204 -189 c18 -20 33 -41 33 -47 0 -6 -52 -10 -140 -10
-154 0 -163 4 -112 53 39 37 69 47 131 43 48 -3 58 -7 88 -39z"/>
<path d="M4708 1015 c-20 -7 -51 -24 -67 -36 -17 -12 -32 -21 -33 -18 -2 2 -8
13 -14 24 -10 17 -23 20 -102 23 -83 2 -92 1 -102 -18 -17 -31 -9 -865 8 -882
9 -9 41 -13 93 -13 109 0 109 0 109 177 0 93 4 138 11 138 6 0 25 -10 42 -22
38 -27 126 -35 194 -19 65 16 145 71 181 124 41 59 82 163 82 207 0 39 -36
140 -70 195 -66 107 -218 162 -332 120z m110 -185 c70 -43 93 -139 52 -219
-48 -95 -207 -94 -256 1 -27 52 -18 144 18 189 40 49 130 63 186 29z"/>
<path d="M6232 1010 c-23 -10 -58 -31 -77 -45 l-34 -27 -9 34 -8 33 -74 3
c-41 2 -85 0 -97 -3 l-23 -5 0 -298 c0 -163 4 -303 9 -311 11 -18 104 -26 151
-14 l35 9 5 171 5 172 30 31 c42 45 82 63 140 64 l50 1 11 50 c6 28 17 63 25
79 12 26 11 30 -14 52 -34 29 -68 30 -125 4z"/>
<path d="M1273 1004 c-10 -4 -13 -75 -13 -304 0 -355 -7 -334 112 -328 56 2
82 8 88 18 6 9 9 138 7 315 l-2 300 -90 2 c-49 1 -96 -1 -102 -3z"/>
</g>
</svg>
